#N canvas 738 351 862 341 10;
#X obj 64 30 inlet;
#X obj 104 232 outlet;
#N canvas 285 114 354 448 get 0;
#X obj 93 70 inlet id;
#X obj 93 339 outlet id_data;
#X obj 120 128 *;
#X obj 120 189 list split 1;
#X obj 133 269 list split;
#X obj 133 244 list;
#X obj 120 216 t b f;
#X obj 181 98 r \$0-itemSize;
#X obj 120 157 array get \$0-arrItems;
#X obj 93 102 t f f;
#X obj 93 312 list append;
#X floatatom 197 128 5 0 0 0 - - -;
#X connect 0 0 9 0;
#X connect 2 0 8 0;
#X connect 3 0 6 0;
#X connect 3 1 5 1;
#X connect 4 0 10 1;
#X connect 5 0 4 0;
#X connect 6 0 5 0;
#X connect 6 1 4 1;
#X connect 7 0 2 1;
#X connect 7 0 8 1;
#X connect 7 0 11 0;
#X connect 8 0 3 0;
#X connect 9 0 10 0;
#X connect 9 1 2 0;
#X connect 10 0 1 0;
#X restore 64 174 pd get;
#N canvas 614 99 569 426 create 0;
#X obj 295 330 outlet id;
#X obj 103 35 inlet data;
#X text 151 68 find free slot and alloc;
#X obj 103 66 t l l b;
#X obj 122 118 list length;
#X obj 295 117 t f f b f;
#X msg 329 142 1;
#X obj 312 214 *;
#X obj 103 166 list prepend;
#X obj 142 91 array min \$0-arrItemsInUse;
#X obj 329 166 array set \$0-arrItemsInUse;
#X obj 103 316 array set \$0-arrItems;
#X obj 327 190 r \$0-itemSize;
#X connect 1 0 3 0;
#X connect 3 0 8 0;
#X connect 3 1 4 0;
#X connect 3 2 9 0;
#X connect 4 0 8 1;
#X connect 5 0 0 0;
#X connect 5 1 7 0;
#X connect 5 2 6 0;
#X connect 5 3 10 1;
#X connect 6 0 10 0;
#X connect 7 0 11 1;
#X connect 8 0 11 0;
#X connect 9 1 5 0;
#X connect 12 0 7 1;
#X restore 104 154 pd create;
#N canvas 130 107 450 300 free 0;
#X obj 147 39 inlet id;
#X obj 147 67 t b f;
#X msg 147 92 0;
#X obj 147 116 array set \$0-arrItemsInUse;
#X connect 0 0 1 0;
#X connect 1 0 2 0;
#X connect 1 1 3 1;
#X connect 2 0 3 0;
#X restore 184 110 pd free;
#N canvas 347 128 312 380 update 0;
#X obj 79 45 inlet id_data;
#X obj 113 105 t l l;
#X obj 63 122 t b f;
#X obj 138 231 *;
#X obj 79 69 list split 1;
#X obj 153 207 r \$0-itemSize;
#X obj 77 256 array set \$0-arrItems;
#X obj 113 134 list length;
#X obj 77 159 f;
#X obj 77 188 list append;
#X connect 0 0 4 0;
#X connect 1 0 7 0;
#X connect 1 1 9 1;
#X connect 2 0 8 0;
#X connect 2 1 3 0;
#X connect 3 0 6 1;
#X connect 4 0 2 0;
#X connect 4 1 1 0;
#X connect 5 0 3 1;
#X connect 7 0 8 1;
#X connect 8 0 9 0;
#X connect 9 0 6 0;
#X restore 144 131 pd update;
#X msg 580 109 resize \$1;
#X msg 560 161 resize \$1;
#X obj 327 30 loadbang;
#X obj 327 55 bng 15 250 50 0 empty empty empty 17 7 0 10 -262144 -1
-1;
#X obj 580 84 *;
#X obj 541 59 t b f f;
#X msg 541 204 const 0;
#X obj 327 77 t b b;
#X obj 354 102 f \$1;
#X obj 327 179 f \$2;
#X obj 354 128 + 1;
#X obj 666 245 array define \$0-arrItems;
#X obj 636 270 array define \$0-arrItemsInUse;
#X obj 595 59 r \$0-itemSize;
#X obj 354 155 s \$0-itemSize;
#X obj 327 205 s \$0-nItems;
#X obj 541 35 r \$0-nItems;
#X obj 64 61 route get create update free clear;
#X obj 224 87 s \$0-clear;
#X obj 477 131 r \$0-clear;
#X obj 477 163 t b;
#X connect 0 0 23 0;
#X connect 2 0 1 0;
#X connect 3 0 1 0;
#X connect 6 0 17 0;
#X connect 7 0 18 0;
#X connect 8 0 9 0;
#X connect 9 0 13 0;
#X connect 10 0 6 0;
#X connect 11 0 12 0;
#X connect 11 1 7 0;
#X connect 11 2 10 0;
#X connect 12 0 17 0;
#X connect 12 0 18 0;
#X connect 13 0 15 0;
#X connect 13 1 14 0;
#X connect 14 0 16 0;
#X connect 15 0 21 0;
#X connect 16 0 20 0;
#X connect 19 0 10 1;
#X connect 22 0 11 0;
#X connect 23 0 2 0;
#X connect 23 1 3 0;
#X connect 23 2 5 0;
#X connect 23 3 4 0;
#X connect 23 4 24 0;
#X connect 25 0 26 0;
#X connect 26 0 12 0;
