#N canvas 140 626 1186 341 10;
#X obj 122 28 inlet;
#X obj 163 205 outlet;
#N canvas 285 114 354 448 get 1;
#X obj 93 70 inlet id;
#X obj 93 331 outlet id_data;
#X obj 120 128 *;
#X obj 120 183 list split 1;
#X obj 133 263 list split;
#X obj 133 238 list;
#X obj 120 210 t b f;
#X obj 181 98 r \$0-itemSize;
#X obj 120 157 array get \$0-arrItems;
#X obj 93 102 t f f;
#X obj 93 304 list append;
#X connect 0 0 9 0;
#X connect 2 0 8 0;
#X connect 3 0 6 0;
#X connect 3 1 5 1;
#X connect 4 0 10 1;
#X connect 5 0 4 0;
#X connect 6 0 5 0;
#X connect 6 1 4 1;
#X connect 7 0 2 1;
#X connect 7 0 8 1;
#X connect 8 0 3 0;
#X connect 9 0 10 0;
#X connect 9 1 2 0;
#X connect 10 0 1 0;
#X restore 122 148 pd get;
#X obj 122 59 route get create update free;
#N canvas 0 50 450 300 create 0;
#X obj 219 64 inlet data;
#X obj 231 225 outlet id;
#X restore 163 127 pd create;
#N canvas 130 107 450 300 free 0;
#X obj 147 39 inlet id;
#X obj 147 67 t b f;
#X msg 147 92 0;
#X obj 147 116 array set \$0-arrItemsInUse;
#X connect 0 0 1 0;
#X connect 1 0 2 0;
#X connect 1 1 3 1;
#X connect 2 0 3 0;
#X restore 245 83 pd free;
#N canvas 347 128 371 380 update 0;
#X obj 79 28 inlet id_data;
#X obj 140 133 list length;
#X obj 113 178 list prepend;
#X obj 92 244 list;
#X obj 113 105 t l l;
#X obj 72 105 t b f;
#X obj 153 244 *;
#X obj 79 52 list split 1;
#X obj 168 220 r \$0-itemSize;
#X obj 92 269 array set \$0-arrItems;
#X connect 0 0 7 0;
#X connect 1 0 2 1;
#X connect 2 0 3 1;
#X connect 3 0 9 0;
#X connect 4 0 2 0;
#X connect 4 1 1 0;
#X connect 5 0 3 0;
#X connect 5 1 6 0;
#X connect 6 0 9 1;
#X connect 7 0 5 0;
#X connect 7 1 4 0;
#X connect 8 0 6 1;
#X restore 204 105 pd update;
#X msg 580 109 resize \$1;
#X msg 560 161 resize \$1;
#X obj 327 30 loadbang;
#X obj 327 55 bng 15 250 50 0 empty empty empty 17 7 0 10 -262144 -1
-1;
#X obj 580 84 *;
#X obj 541 59 t b f f;
#X msg 541 204 const 0;
#X obj 541 35 r \$0-nDings;
#X obj 327 77 t b b;
#X obj 354 102 f \$1;
#X obj 327 179 f \$2;
#X obj 354 128 + 1;
#X obj 666 245 array define \$0-arrItems;
#X obj 636 270 array define \$0-arrItemsInUse;
#X obj 595 59 r \$0-itemSize;
#X obj 354 155 s \$0-itemSize;
#X obj 327 205 s \$0-nItems;
#X connect 0 0 3 0;
#X connect 2 0 1 0;
#X connect 3 0 2 0;
#X connect 3 1 4 0;
#X connect 3 2 6 0;
#X connect 3 3 5 0;
#X connect 4 0 1 0;
#X connect 7 0 19 0;
#X connect 8 0 20 0;
#X connect 9 0 10 0;
#X connect 10 0 15 0;
#X connect 11 0 7 0;
#X connect 12 0 13 0;
#X connect 12 1 8 0;
#X connect 12 2 11 0;
#X connect 13 0 19 0;
#X connect 13 0 20 0;
#X connect 14 0 12 0;
#X connect 15 0 17 0;
#X connect 15 1 16 0;
#X connect 16 0 18 0;
#X connect 17 0 23 0;
#X connect 18 0 22 0;
#X connect 21 0 11 1;
