#N canvas 719 157 504 575 10;
#X obj 97 246 snapshot~;
#X obj 118 168 bng 15 250 50 0 empty empty empty 17 7 0 10 -262144
-1 -1;
#X obj 142 345 >;
#X obj 138 294 t f f b;
#X obj 157 323 f;
#X obj 142 368 change;
#X msg 131 192 stop;
#X obj 142 392 select 0;
#X obj 142 417 f;
#X obj 172 417 + 1;
#X text 180 121 bar phasor;
#X text 199 414 bar counter;
#X obj 97 442 pack f f;
#X obj 97 271 t f f;
#X obj 97 486 outlet;
#X obj 118 216 metro 1;
#X obj 118 142 loadbang;
#X obj 98 118 phasor~ 0.3;
#X connect 0 0 13 0;
#X connect 1 0 15 0;
#X connect 2 0 5 0;
#X connect 3 0 4 1;
#X connect 3 1 2 0;
#X connect 3 2 4 0;
#X connect 4 0 2 1;
#X connect 5 0 7 0;
#X connect 6 0 15 0;
#X connect 7 0 8 0;
#X connect 8 0 9 0;
#X connect 8 0 12 1;
#X connect 9 0 8 1;
#X connect 12 0 14 0;
#X connect 13 0 12 0;
#X connect 13 1 3 0;
#X connect 15 0 0 0;
#X connect 16 0 1 0;
#X connect 17 0 0 0;
