#N canvas 0 50 450 381 10;
#X obj 178 152 + 1;
#X floatatom 123 255 5 0 0 0 - - -;
#X obj 141 176 t f f;
#X floatatom 182 254 5 0 0 0 - - -;
#X obj 182 231 change;
#X obj 130 283 pack f f;
#X obj 141 151 f 0;
#X obj 123 207 mod \$1;
#X obj 182 207 div \$1;
#X obj 123 231 / \$1;
#X obj 130 309 outlet ph_bar;
#X obj 141 92 inlet;
#X msg 53 107 0;
#X obj 141 124 metro 1;
#X connect 0 0 6 1;
#X connect 1 0 5 0;
#X connect 2 0 7 0;
#X connect 2 1 8 0;
#X connect 3 0 5 1;
#X connect 4 0 3 0;
#X connect 5 0 10 0;
#X connect 6 0 0 0;
#X connect 6 0 2 0;
#X connect 7 0 9 0;
#X connect 8 0 4 0;
#X connect 9 0 1 0;
#X connect 11 0 13 0;
#X connect 12 0 6 0;
#X connect 13 0 6 0;
