#N canvas 719 157 504 575 10;
#X obj 118 311 snapshot~;
#X obj 139 233 bng 15 250 50 0 empty empty empty 17 7 0 10 -262144
-1 -1;
#X msg 152 257 stop;
#X obj 136 522 pack f f;
#X obj 136 548 outlet;
#X obj 139 281 metro 1;
#X obj 139 207 loadbang;
#X obj 119 183 phasor~ 0.3;
#X obj 142 372 f;
#X obj 127 417 change;
#X obj 127 441 select 0;
#X obj 127 466 f;
#X obj 157 466 + 1;
#X obj 127 394 <;
#X obj 118 339 t b f f b f;
#X obj 118 491 f;
#X obj 136 32 inlet dur;
#X obj 136 60 max 100;
#X obj 121 131 /~;
#X obj 75 90 sig~ 1000;
#X obj 120 156 lop~ 10;
#X obj 136 89 sig~ 3000;
#X connect 0 0 14 0;
#X connect 1 0 5 0;
#X connect 2 0 5 0;
#X connect 3 0 4 0;
#X connect 5 0 0 0;
#X connect 6 0 1 0;
#X connect 7 0 0 0;
#X connect 8 0 13 1;
#X connect 9 0 10 0;
#X connect 10 0 11 0;
#X connect 11 0 12 0;
#X connect 11 0 15 1;
#X connect 12 0 11 1;
#X connect 13 0 9 0;
#X connect 14 0 15 0;
#X connect 14 1 13 0;
#X connect 14 2 8 1;
#X connect 14 3 8 0;
#X connect 14 4 3 1;
#X connect 15 0 3 0;
#X connect 16 0 17 0;
#X connect 17 0 21 0;
#X connect 18 0 20 0;
#X connect 19 0 18 0;
#X connect 20 0 7 0;
#X connect 21 0 18 1;
