#N canvas 626 382 450 381 10;
#X obj 176 156 + 1;
#X obj 158 316 pack f f;
#X obj 139 155 f 0;
#X obj 139 96 inlet;
#X msg 51 111 0;
#X obj 139 128 metro 1;
#X floatatom 203 257 5 0 0 0 - - -;
#X obj 203 209 mod \$1;
#X obj 203 233 / \$1;
#X floatatom 158 256 5 0 0 0 - - -;
#X obj 158 233 change;
#X obj 158 209 div \$1;
#X obj 158 342 outlet bar_ph;
#X obj 139 180 t b f f;
#X obj 139 284 f;
#X connect 0 0 2 1;
#X connect 1 0 12 0;
#X connect 2 0 0 0;
#X connect 2 0 13 0;
#X connect 3 0 5 0;
#X connect 4 0 2 0;
#X connect 5 0 2 0;
#X connect 6 0 1 1;
#X connect 7 0 8 0;
#X connect 8 0 6 0;
#X connect 9 0 14 1;
#X connect 10 0 9 0;
#X connect 11 0 10 0;
#X connect 13 0 14 0;
#X connect 13 1 11 0;
#X connect 13 2 7 0;
#X connect 14 0 1 0;
