#N canvas 640 466 450 300 10;
#X obj 117 47 inlet evId;
#X obj 117 122 array set arrEventsInUse;
#X obj 117 73 t b f;
#X msg 117 98 0;
#X connect 0 0 2 0;
#X connect 2 0 3 0;
#X connect 2 1 1 1;
#X connect 3 0 1 0;
