#N canvas 427 198 570 365 10;
#X obj 265 149 schedule;
#X msg 265 181 get \$1;
#X obj 192 36 inlet clock;
#X obj 265 234 outlet event;
#X obj 310 33 inlet event;
#X obj 73 103 r to-\$0-cloakroom;
#X obj 73 155 s from-\$0-Cloakroom;
#N canvas 56 586 469 332 cloak 0;
#X obj 174 45 inlet;
#X obj 174 70 t a b;
#X obj 122 121 s to-\$0-cloakroom;
#X obj 123 145 r from-\$0-Cloakroom;
#X obj 123 235 spigot;
#X obj 123 259 outlet;
#X obj 264 120 + 1;
#X obj 249 146 f;
#X obj 249 172 t f f;
#X obj 156 209 ==;
#X text 107 14 simple routing of shared resource - no fancy locks;
#X obj 264 95 r \$0-recipient;
#X obj 156 171 r \$0-recipient;
#X obj 249 204 s \$0-recipient;
#X connect 0 0 1 0;
#X connect 1 0 2 0;
#X connect 1 1 7 0;
#X connect 3 0 4 0;
#X connect 4 0 5 0;
#X connect 6 0 7 1;
#X connect 7 0 8 0;
#X connect 8 0 13 0;
#X connect 8 1 9 1;
#X connect 9 0 4 1;
#X connect 11 0 6 0;
#X connect 12 0 9 0;
#X restore 265 207 pd cloak;
#N canvas 301 404 443 513 storeEvent 0;
#X obj 203 36 inlet event;
#X obj 203 91 t l l;
#X obj 155 162 moses 0;
#X msg 99 227 create;
#X obj 99 204 t b;
#X obj 155 133 list split 1;
#X text 213 63 [key \, [spec] \, [ts]];
#X obj 236 290 list trim;
#X obj 236 266 list append;
#X obj 99 277 list trim;
#X obj 99 252 list append;
#X obj 99 327 list append;
#X obj 209 372 list;
#X msg 236 239 update;
#X obj 209 211 t b b;
#X obj 133 425 outlet;
#N canvas 56 586 469 332 cloak 0;
#X obj 174 45 inlet;
#X obj 174 70 t a b;
#X obj 122 121 s to-\$0-cloakroom;
#X obj 123 145 r from-\$0-Cloakroom;
#X obj 123 235 spigot;
#X obj 123 259 outlet;
#X obj 264 120 + 1;
#X obj 249 146 f;
#X obj 249 172 t f f;
#X obj 156 209 ==;
#X text 107 14 simple routing of shared resource - no fancy locks;
#X obj 264 95 r \$0-recipient;
#X obj 156 171 r \$0-recipient;
#X obj 249 204 s \$0-recipient;
#X connect 0 0 1 0;
#X connect 1 0 2 0;
#X connect 1 1 7 0;
#X connect 3 0 4 0;
#X connect 4 0 5 0;
#X connect 6 0 7 1;
#X connect 7 0 8 0;
#X connect 8 0 13 0;
#X connect 8 1 9 1;
#X connect 9 0 4 1;
#X connect 11 0 6 0;
#X connect 12 0 9 0;
#X restore 99 301 pd cloak;
#N canvas 56 586 469 332 cloak 0;
#X obj 174 45 inlet;
#X obj 174 70 t a b;
#X obj 122 121 s to-\$0-cloakroom;
#X obj 123 145 r from-\$0-Cloakroom;
#X obj 123 235 spigot;
#X obj 123 259 outlet;
#X obj 264 120 + 1;
#X obj 249 146 f;
#X obj 249 172 t f f;
#X obj 156 209 ==;
#X text 107 14 simple routing of shared resource - no fancy locks;
#X obj 264 95 r \$0-recipient;
#X obj 156 171 r \$0-recipient;
#X obj 249 204 s \$0-recipient;
#X connect 0 0 1 0;
#X connect 1 0 2 0;
#X connect 1 1 7 0;
#X connect 3 0 4 0;
#X connect 4 0 5 0;
#X connect 6 0 7 1;
#X connect 7 0 8 0;
#X connect 8 0 13 0;
#X connect 8 1 9 1;
#X connect 9 0 4 1;
#X connect 11 0 6 0;
#X connect 12 0 9 0;
#X restore 236 316 pd cloak;
#X connect 0 0 1 0;
#X connect 1 0 5 0;
#X connect 1 1 8 1;
#X connect 1 1 12 1;
#X connect 2 0 4 0;
#X connect 2 1 14 0;
#X connect 3 0 10 0;
#X connect 4 0 3 0;
#X connect 5 0 2 0;
#X connect 5 1 10 1;
#X connect 5 1 11 1;
#X connect 7 0 17 0;
#X connect 8 0 7 0;
#X connect 9 0 16 0;
#X connect 10 0 9 0;
#X connect 11 0 15 0;
#X connect 12 0 15 0;
#X connect 13 0 8 0;
#X connect 14 0 12 0;
#X connect 14 1 13 0;
#X connect 16 0 11 0;
#X restore 310 90 pd storeEvent;
#X obj 310 122 list split 3;
#X text 324 55 [key \, bar \, ph \, [spec]];
#X text 242 265 [key \, bar \, ph \, [spec]];
#X text 321 150 [key \, bar \, ph];
#X obj 73 128 cloakroom 20 1000;
#X connect 0 0 1 0;
#X connect 1 0 7 0;
#X connect 2 0 0 0;
#X connect 4 0 8 0;
#X connect 5 0 13 0;
#X connect 7 0 3 0;
#X connect 8 0 9 0;
#X connect 9 0 0 1;
#X connect 13 0 6 0;
