#N canvas 643 556 332 347 10;
#X obj 99 31 inlet evId;
#X obj 112 246 outlet data;
#X obj 99 115 array get arrEvents;
#X obj 154 56 r evSize;
#X obj 99 86 *;
#X obj 99 141 list split 1;
#X obj 112 221 list split;
#X obj 112 196 list;
#X obj 99 168 t b f;
#X connect 0 0 4 0;
#X connect 2 0 5 0;
#X connect 3 0 2 1;
#X connect 3 0 4 1;
#X connect 4 0 2 0;
#X connect 5 0 8 0;
#X connect 5 1 7 1;
#X connect 6 0 1 0;
#X connect 7 0 6 0;
#X connect 8 0 7 0;
#X connect 8 1 6 1;
