#N canvas 249 341 744 364 10;
#X obj 416 245 array define arrEvents;
#X obj 385 296 array define arrEventsInUse;
#X msg 302 107 resize \$1;
#X msg 282 159 resize \$1;
#X obj 49 28 loadbang;
#X obj 49 53 bng 15 250 50 0 empty empty empty 17 7 0 10 -262144 -1
-1;
#X obj 49 98 unpack f f;
#X msg 49 74 1000 14;
#X obj 49 145 s \$0-nEvents;
#X obj 263 33 r \$0-nEvents;
#X text 467 14 define and initialize event array;
#X obj 106 122 s evSize;
#X obj 317 57 r evSize;
#X obj 302 82 *;
#X obj 263 57 t b f f;
#X msg 263 202 const 0;
#X obj 537 126 schedule;
#X obj 537 71 r clock;
#X obj 582 96 r schedule;
#X text 552 148 [ph \, bar \, id] to play;
#X obj 537 186 s toPlay;
#X connect 2 0 0 0;
#X connect 3 0 1 0;
#X connect 4 0 5 0;
#X connect 5 0 7 0;
#X connect 6 0 8 0;
#X connect 6 1 11 0;
#X connect 7 0 6 0;
#X connect 9 0 14 0;
#X connect 12 0 13 1;
#X connect 13 0 2 0;
#X connect 14 0 15 0;
#X connect 14 1 3 0;
#X connect 14 2 13 0;
#X connect 15 0 0 0;
#X connect 15 0 1 0;
#X connect 16 0 20 0;
#X connect 17 0 16 0;
#X connect 18 0 16 1;
