#N canvas 535 488 379 347 10;
#X obj 134 46 inlet data;
#X obj 161 105 list length;
#X obj 113 241 array set arrEvents;
#X obj 134 150 list prepend;
#X obj 49 44 inlet evId;
#X obj 113 209 list;
#X obj 134 77 t l l;
#X obj 49 74 t b f;
#X obj 168 215 *;
#X obj 183 191 r evSize;
#X connect 0 0 6 0;
#X connect 1 0 3 1;
#X connect 3 0 5 1;
#X connect 4 0 7 0;
#X connect 5 0 2 0;
#X connect 6 0 3 0;
#X connect 6 1 1 0;
#X connect 7 0 5 0;
#X connect 7 1 8 0;
#X connect 8 0 2 1;
#X connect 9 0 8 1;
