#N canvas 492 511 531 467 10;
#X obj 103 35 inlet data;
#X obj 283 319 outlet evId;
#X obj 142 91 array min arrEventsInUse;
#X text 151 68 find free slot and alloc;
#X obj 103 66 t l l b;
#X obj 122 118 list length;
#X obj 283 115 t f f b f;
#X obj 317 164 array set arrEventsInUse;
#X msg 317 140 1;
#X obj 103 316 array set arrEvents;
#X obj 300 212 *;
#X obj 315 188 r evSize;
#X obj 103 166 list prepend;
#X connect 0 0 4 0;
#X connect 2 1 6 0;
#X connect 4 0 12 0;
#X connect 4 1 5 0;
#X connect 4 2 2 0;
#X connect 5 0 12 1;
#X connect 6 0 1 0;
#X connect 6 1 10 0;
#X connect 6 2 8 0;
#X connect 6 3 7 1;
#X connect 8 0 7 0;
#X connect 10 0 9 1;
#X connect 11 0 10 1;
#X connect 12 0 9 0;
