#N canvas 878 377 577 474 10;
#X obj 115 130 select 0 1;
#X obj 115 334 t b b;
#X msg 142 357 1;
#X obj 115 408 outlet;
#X obj 130 81 r lock-\$1;
#X obj 142 381 s lock-\$1;
#X obj 102 29 inlet;
#X obj 127 176 r lock-\$1;
#X msg 193 175 1;
#X msg 211 231 0;
#X obj 127 230 select 0;
#X obj 127 255 t b b;
#X obj 127 304 s \$0-tryAgain;
#X obj 127 53 r \$0-tryAgain;
#X obj 127 204 spigot 0;
#X obj 127 279 delay;
#X text 150 26 simple resource lock;
#X floatatom 216 123 5 0 0 0 - - -;
#X obj 115 105 f 1;
#X connect 0 0 1 0;
#X connect 0 1 8 0;
#X connect 1 0 3 0;
#X connect 1 1 2 0;
#X connect 2 0 5 0;
#X connect 4 0 17 0;
#X connect 4 0 18 1;
#X connect 6 0 18 0;
#X connect 7 0 14 0;
#X connect 8 0 14 1;
#X connect 9 0 14 1;
#X connect 10 0 11 0;
#X connect 11 0 15 0;
#X connect 11 1 9 0;
#X connect 13 0 18 0;
#X connect 14 0 10 0;
#X connect 15 0 12 0;
#X connect 18 0 0 0;
