#N canvas 38 633 450 415 10;
#X obj 113 24 inlet lpacked;
#X obj 98 325 outlet;
#X obj 179 331 outlet tail;
#X obj 113 55 list split 2;
#X obj 113 89 unpack f f;
#X obj 140 185 list split;
#X obj 170 141 list;
#X obj 170 115 t b f;
#X obj 179 278 - 1;
#X obj 179 306 list append;
#X obj 140 251 moses 2;
#X connect 0 0 3 0;
#X connect 3 0 4 0;
#X connect 3 1 6 1;
#X connect 4 0 10 0;
#X connect 4 1 7 0;
#X connect 5 0 1 0;
#X connect 5 1 9 1;
#X connect 6 0 5 0;
#X connect 7 0 6 0;
#X connect 7 1 5 1;
#X connect 8 0 9 0;
#X connect 9 0 2 0;
#X connect 10 1 8 0;
