#N canvas 502 530 335 400 10;
#X obj 79 39 inlet;
#X text 99 62 [pad \, vel];
#X obj 79 95 route 6;
#X obj 116 212 osc~ 200;
#N canvas 877 607 450 300 mkenv 0;
#X obj 103 35 inlet vel;
#X obj 103 61 min 1;
#X obj 103 86 t f f f;
#X obj 90 109 sqrt;
#X obj 122 110 * 0.8;
#X obj 94 135 pack f f f;
#X obj 93 184 vline~;
#X obj 92 212 outlet~;
#X obj 160 111 * 500;
#X msg 94 159 \$1 10 \, \$2 40 10 \, 0 \$3 50;
#X connect 0 0 1 0;
#X connect 1 0 2 0;
#X connect 2 0 3 0;
#X connect 2 1 4 0;
#X connect 2 2 8 0;
#X connect 3 0 5 0;
#X connect 4 0 5 1;
#X connect 5 0 9 0;
#X connect 6 0 7 0;
#X connect 8 0 5 2;
#X connect 9 0 6 0;
#X restore 79 130 pd mkenv;
#X obj 118 161 *~ 500;
#X obj 117 186 +~ 100;
#X obj 79 256 *~;
#X obj 79 295 outlet~;
#X connect 0 0 2 0;
#X connect 2 0 4 0;
#X connect 3 0 7 1;
#X connect 4 0 5 0;
#X connect 4 0 7 0;
#X connect 5 0 6 0;
#X connect 6 0 3 0;
#X connect 7 0 8 0;
