#N canvas 871 142 458 454 10;
#X obj 87 38 notein;
#X obj 204 47 ctlin;
#X obj 87 77 - 68;
#X obj 232 95 expr 23+\$1*3;
#X obj 217 119 -;
#X obj 232 70 loadbang;
#X obj 204 148 swap;
#X obj 204 207 route 0 1 2;
#X obj 87 132 route \$1;
#X obj 87 103 pack f f;
#X obj 204 178 pack f f;
#X obj 164 246 f;
#X obj 201 245 f;
#X obj 244 246 f;
#X obj 87 156 change;
#X obj 87 181 moses 1;
#X obj 101 396 outlet;
#X obj 101 347 pack \$1 f f f f;
#X obj 126 206 t b f b b b;
#X obj 244 270 - 63.5;
#X obj 244 295 / 63.5;
#X obj 201 269 - 63.5;
#X obj 201 294 / 63.5;
#X obj 164 270 / 127;
#X obj 127 270 / 127;
#X text 111 371 [pad \, vel \, mid \, x \, y];
#X obj 285 398 outlet dur;
#X obj 46 213 t b;
#X obj 37 291 timer;
#X text 291 374 [(ms)];
#X connect 0 0 2 0;
#X connect 0 1 9 1;
#X connect 1 0 6 0;
#X connect 1 1 4 0;
#X connect 2 0 9 0;
#X connect 3 0 4 1;
#X connect 4 0 6 1;
#X connect 5 0 3 0;
#X connect 6 0 10 0;
#X connect 6 1 10 1;
#X connect 7 0 11 1;
#X connect 7 1 12 1;
#X connect 7 2 13 1;
#X connect 8 0 14 0;
#X connect 9 0 8 0;
#X connect 10 0 7 0;
#X connect 11 0 23 0;
#X connect 12 0 21 0;
#X connect 13 0 19 0;
#X connect 14 0 15 0;
#X connect 15 0 27 0;
#X connect 15 1 18 0;
#X connect 17 0 16 0;
#X connect 18 0 17 0;
#X connect 18 0 28 0;
#X connect 18 1 24 0;
#X connect 18 2 11 0;
#X connect 18 3 12 0;
#X connect 18 4 13 0;
#X connect 19 0 20 0;
#X connect 20 0 17 4;
#X connect 21 0 22 0;
#X connect 22 0 17 3;
#X connect 23 0 17 2;
#X connect 24 0 17 1;
#X connect 27 0 28 1;
#X connect 28 0 26 0;
