#N canvas 871 142 683 454 10;
#X obj 65 30 notein;
#X obj 255 29 ctlin;
#X obj 65 69 - 68;
#X obj 283 77 expr 23+\$1*3;
#X obj 268 101 -;
#X obj 283 52 loadbang;
#X obj 255 130 swap;
#X obj 255 189 route 0 1 2;
#X obj 65 124 route \$1;
#X obj 65 95 pack f f;
#X obj 255 160 pack f f;
#X obj 65 148 change;
#X obj 65 173 moses 1;
#X obj 123 335 outlet;
#X obj 319 221 - 63.5;
#X obj 319 246 / 63.5;
#X obj 276 220 - 63.5;
#X obj 276 245 / 63.5;
#X obj 239 221 / 127;
#X obj 143 225 / 127;
#X obj 30 204 t b;
#X obj 503 270 timer;
#X obj 248 337 outlet liveat;
#X obj 248 276 pack f f f;
#X obj 76 259 s \$0-go;
#X obj 104 198 t b b f;
#X obj 30 231 s \$0-stop;
#X obj 503 222 r \$0-go;
#X obj 530 245 r \$0-stop;
#X text 257 302 [mid \, x \, y];
#X text 133 310 [pad \, vel];
#X obj 123 286 pack \$1 f;
#X obj 526 354 outlet spec;
#X text 499 294 [dur (ms)];
#X obj 387 179 timer;
#X obj 387 131 r \$0-go;
#X connect 0 0 2 0;
#X connect 0 1 9 1;
#X connect 1 0 6 0;
#X connect 1 1 4 0;
#X connect 2 0 9 0;
#X connect 3 0 4 1;
#X connect 4 0 6 1;
#X connect 5 0 3 0;
#X connect 6 0 10 0;
#X connect 6 1 10 1;
#X connect 7 0 18 0;
#X connect 7 1 16 0;
#X connect 7 2 14 0;
#X connect 8 0 11 0;
#X connect 9 0 8 0;
#X connect 10 0 7 0;
#X connect 11 0 12 0;
#X connect 12 0 20 0;
#X connect 12 1 25 0;
#X connect 14 0 15 0;
#X connect 15 0 23 2;
#X connect 16 0 17 0;
#X connect 17 0 23 1;
#X connect 18 0 23 0;
#X connect 19 0 31 1;
#X connect 20 0 26 0;
#X connect 23 0 22 0;
#X connect 25 0 24 0;
#X connect 25 1 31 0;
#X connect 25 2 19 0;
#X connect 27 0 21 0;
#X connect 28 0 21 1;
#X connect 31 0 13 0;
#X connect 35 0 34 0;
