#N canvas 473 690 655 206 10;
#X obj 30 30 inlet clock;
#X obj 30 122 outlet play;
#N canvas 274 301 655 692 initialize 0;
#X msg 219 275 resize \$1;
#X text 157 21 Initialize;
#X msg 200 102 1.44e+07;
#X text 264 97 as big as we can reliably add one;
#X obj 161 76 t b b b;
#X obj 74 235 s \$0-maxUsedId;
#X msg 180 223 300;
#X obj 200 172 - 10;
#X obj 275 399 array define \$0-phase;
#X obj 258 435 array define \$0-bar;
#X obj 210 124 s \$0-barClear;
#X obj 200 196 s \$0-barInit;
#X obj 286 358 array define \$0-eventid;
#X text 211 224 max number of active events;
#X msg 74 213 0;
#X obj 209 147 s \$0-minBar;
#X obj 161 50 inlet;
#X obj 180 250 t b b f;
#X msg 150 303 const 4;
#X msg 73 382 const \$1;
#X obj 73 357 f;
#X obj 88 334 r \$0-barInit;
#X connect 0 0 9 0;
#X connect 0 0 8 0;
#X connect 0 0 12 0;
#X connect 2 0 7 0;
#X connect 2 0 10 0;
#X connect 2 0 15 0;
#X connect 4 0 14 0;
#X connect 4 1 6 0;
#X connect 4 2 2 0;
#X connect 6 0 17 0;
#X connect 7 0 11 0;
#X connect 14 0 5 0;
#X connect 16 0 4 0;
#X connect 17 0 20 0;
#X connect 17 1 18 0;
#X connect 17 2 0 0;
#X connect 18 0 8 0;
#X connect 19 0 9 0;
#X connect 20 0 19 0;
#X connect 21 0 20 1;
#X restore 415 37 pd initialize;
#N canvas 510 167 573 618 schedule 0;
#X obj 68 54 inlet set;
#X obj 383 201 s \$0-maxUsedId;
#X obj 95 146 array max \$0-bar;
#X obj 141 119 + 1;
#X obj 141 93 r \$0-maxUsedId;
#X obj 356 176 moses;
#X obj 383 153 r \$0-maxUsedId;
#X obj 68 174 unpack f f f;
#X obj 68 557 array set \$0-eventid;
#X text 69 20 Find first free slot and write values into it;
#X obj 143 431 array set \$0-phase;
#X obj 189 262 array set \$0-bar;
#X obj 356 124 r \$0-freeSlot;
#X obj 188 171 s \$0-freeSlot;
#X obj 126 532 r \$0-freeSlot;
#X obj 235 238 r \$0-freeSlot;
#X obj 195 406 r \$0-freeSlot;
#X obj 143 406 +;
#X obj 150 330 >;
#X obj 158 356 t f f;
#X obj 158 383 * 2;
#X obj 150 237 t f f f;
#X obj 84 481 array min \$0-phase;
#X obj 189 503 s \$0-iMinPh;
#X obj 84 505 s \$0-minPh;
#X obj 136 458 r \$0-maxUsedId;
#X obj 169 283 s \$0-newBar;
#X obj 116 356 t b f;
#X obj 84 431 select 0;
#X obj 84 406 f;
#X obj 356 150 + 1;
#X obj 165 307 r \$0-barNow;
#X obj 355 348 r \$0-newBar;
#X obj 370 370 r \$0-minBar;
#X obj 355 417 s \$0-minBar;
#X obj 355 394 min;
#X text 88 73 [id \, bar \, ph];
#X obj 68 101 t l b;
#X obj 116 207 swap;
#X connect 0 0 37 0;
#X connect 2 1 13 0;
#X connect 3 0 2 1;
#X connect 4 0 3 0;
#X connect 5 1 1 0;
#X connect 6 0 5 1;
#X connect 7 0 8 0;
#X connect 7 1 38 0;
#X connect 7 2 38 1;
#X connect 12 0 30 0;
#X connect 14 0 8 1;
#X connect 15 0 11 1;
#X connect 16 0 10 1;
#X connect 17 0 10 0;
#X connect 18 0 19 0;
#X connect 19 0 20 0;
#X connect 19 1 29 1;
#X connect 20 0 17 1;
#X connect 21 0 18 0;
#X connect 21 1 26 0;
#X connect 21 2 11 0;
#X connect 22 0 24 0;
#X connect 22 1 23 0;
#X connect 25 0 22 1;
#X connect 27 0 29 0;
#X connect 27 1 17 0;
#X connect 28 0 22 0;
#X connect 29 0 28 0;
#X connect 30 0 5 0;
#X connect 31 0 18 1;
#X connect 32 0 35 0;
#X connect 33 0 35 1;
#X connect 35 0 34 0;
#X connect 37 0 7 0;
#X connect 37 1 2 0;
#X connect 38 0 27 0;
#X connect 38 1 21 0;
#X restore 144 127 pd schedule;
#X obj 195 25 inlet set;
#X floatatom 404 104 5 0 0 0 - - -;
#X obj 404 79 r \$0-maxUsedId;
#N canvas 265 167 544 822 trigger 0;
#X obj 121 45 inlet clock;
#X text 153 21 Clock;
#X obj 121 92 unpack f f;
#X obj 163 226 >=;
#X obj 178 202 r \$0-minPh;
#X obj 163 272 select 1;
#X obj 163 320 f;
#X obj 178 295 r \$0-iMinPh;
#X obj 163 179 f;
#N canvas 997 103 657 757 scanBar 0;
#X obj 214 86 inlet bar;
#X obj 328 239 r \$0-minBar;
#X obj 313 264 >=;
#X obj 238 397 - 1;
#X obj 238 418 moses 0;
#X obj 214 348 delay;
#X obj 226 324 t b f;
#X obj 238 376 f;
#X text 185 373 pace it;
#X obj 313 294 select 1;
#X obj 313 342 f;
#X obj 328 317 r \$0-maxUsedId;
#X obj 295 494 spigot;
#X obj 313 365 t f f f;
#X obj 363 394 array get \$0-bar 0 1;
#X obj 295 519 t f f;
#X text 372 294 if any more bars scheduled;
#X obj 89 639 outlet ok;
#X text 211 48 if still in present bar \, pass on bang otherwise \,
shift phases down to 0-1 for playing;
#X obj 416 418 r \$0-barNow;
#X obj 446 472 ==;
#X obj 328 471 <;
#X obj 388 646 array set \$0-phase;
#X obj 413 497 spigot;
#X obj 413 522 t f f;
#X obj 388 554 array get \$0-phase 0 1;
#X obj 403 602 div 1;
#X obj 388 578 t f f;
#X obj 388 624 -;
#X obj 276 550 t b;
#X obj 276 596 f;
#X obj 276 618 array set \$0-bar;
#X obj 291 572 r \$0-barClear;
#X text 278 644 garbage collect;
#X obj 287 193 s \$0-barNow;
#X obj 200 237 spigot;
#X msg 233 212 0;
#X msg 192 158 1;
#X obj 68 522 array min \$0-phase;
#X obj 173 546 s \$0-iMinPh;
#X obj 68 547 s \$0-minPh;
#X obj 120 496 r \$0-maxUsedId;
#X text 190 523 get next ph;
#X obj 41 494 t b b;
#X obj 200 265 s \$0-scanDone;
#X obj 89 613 r \$0-scanDone;
#X obj 41 572 s \$0-scanDone;
#X obj 214 110 t b b f;
#X obj 253 162 t f f b;
#X obj 253 137 change;
#X connect 0 0 47 0;
#X connect 1 0 2 1;
#X connect 2 0 9 0;
#X connect 3 0 4 0;
#X connect 4 0 43 0;
#X connect 4 1 13 0;
#X connect 5 0 7 0;
#X connect 6 0 5 0;
#X connect 6 1 7 1;
#X connect 7 0 3 0;
#X connect 9 0 10 0;
#X connect 10 0 13 0;
#X connect 11 0 10 1;
#X connect 12 0 15 0;
#X connect 13 0 6 0;
#X connect 13 1 12 0;
#X connect 13 1 23 0;
#X connect 13 2 14 0;
#X connect 14 0 20 0;
#X connect 14 0 21 0;
#X connect 15 0 29 0;
#X connect 15 1 31 1;
#X connect 19 0 20 1;
#X connect 19 0 21 1;
#X connect 20 0 23 1;
#X connect 21 0 12 1;
#X connect 23 0 24 0;
#X connect 24 0 25 0;
#X connect 24 1 22 1;
#X connect 25 0 27 0;
#X connect 26 0 28 1;
#X connect 27 0 28 0;
#X connect 27 1 26 0;
#X connect 28 0 22 0;
#X connect 29 0 30 0;
#X connect 30 0 31 0;
#X connect 32 0 30 1;
#X connect 35 0 44 0;
#X connect 36 0 35 1;
#X connect 37 0 35 1;
#X connect 38 0 40 0;
#X connect 38 1 39 0;
#X connect 41 0 38 1;
#X connect 43 0 46 0;
#X connect 43 1 38 0;
#X connect 45 0 17 0;
#X connect 47 0 37 0;
#X connect 47 1 35 0;
#X connect 47 2 49 0;
#X connect 48 0 2 0;
#X connect 48 1 34 0;
#X connect 48 2 36 0;
#X connect 49 0 48 0;
#X restore 110 126 pd scanBar;
#X obj 163 249 change 1;
#X obj 163 344 t f f;
#X obj 74 530 array set \$0-bar;
#X obj 74 505 f, f 2;
#X obj 83 481 r \$0-barClear;
#X obj 91 431 f 4;
#X obj 91 455 array set \$0-phase;
#X obj 57 580 array min \$0-phase;
#X obj 162 604 s \$0-iMinPh;
#X obj 84 630 s \$0-minPh;
#X obj 57 605 t f f;
#X obj 57 654 moses 1;
#X text 115 653 no more ph - get next bar;
#X obj 96 677 t b;
#X obj 96 702 array min \$0-bar;
#X obj 109 554 r \$0-maxUsedId;
#X obj 142 678 r \$0-maxUsedId;
#X obj 96 728 s \$0-minBar;
#X obj 57 401 t b b b f;
#X text 179 581 get next ph;
#X text 140 66 [bar \, ph];
#X obj 280 508 outlet play;
#X obj 280 482 pack f f f;
#X obj 280 415 array get \$0-eventid 0 1;
#X obj 337 459 r \$0-minPh;
#X obj 308 438 r \$0-barNow;
#X text 281 533 [id \, bar \, ph];
#X connect 0 0 2 0;
#X connect 2 0 9 0;
#X connect 2 1 8 1;
#X connect 3 0 10 0;
#X connect 4 0 3 1;
#X connect 5 0 6 0;
#X connect 6 0 11 0;
#X connect 7 0 6 1;
#X connect 8 0 3 0;
#X connect 9 0 8 0;
#X connect 10 0 5 0;
#X connect 11 0 28 0;
#X connect 11 1 33 0;
#X connect 13 0 12 0;
#X connect 14 0 13 1;
#X connect 15 0 16 0;
#X connect 17 0 20 0;
#X connect 17 1 18 0;
#X connect 20 0 21 0;
#X connect 20 1 19 0;
#X connect 21 1 23 0;
#X connect 23 0 24 0;
#X connect 24 0 27 0;
#X connect 25 0 17 1;
#X connect 26 0 24 1;
#X connect 28 0 17 0;
#X connect 28 1 13 0;
#X connect 28 2 15 0;
#X connect 28 3 16 1;
#X connect 28 3 12 1;
#X connect 32 0 31 0;
#X connect 33 0 32 0;
#X connect 34 0 32 2;
#X connect 35 0 32 1;
#X restore 30 78 pd trigger;
#N canvas 1100 222 450 488 debug 1;
#X obj 120 197 print events;
#X obj 120 171 array get \$0-eventid 0 10;
#X obj 122 68 array get \$0-bar 0 10;
#X obj 122 120 array get \$0-phase 0 10;
#X msg 91 39 0;
#X obj 122 94 print bars;
#X obj 122 146 print phases;
#X obj 323 333 r \$0-freeSlot;
#X floatatom 323 358 5 0 0 0 - - -;
#X floatatom 296 55 5 0 0 0 - - -;
#X obj 296 30 r \$0-maxUsedId;
#X obj 296 79 print maxUsed;
#X floatatom 109 267 5 0 0 0 - - -;
#X obj 109 242 r \$0-minBar;
#X floatatom 212 266 5 0 0 0 - - -;
#X obj 212 241 r \$0-minPh;
#X floatatom 301 263 5 0 0 0 - - -;
#X obj 301 238 r \$0-iMinPh;
#X floatatom 115 357 5 0 0 0 - - -;
#X obj 115 332 r \$0-barNow;
#X floatatom 231 358 5 0 0 0 - - -;
#X obj 231 333 r \$0-newBar;
#X obj 212 290 print minPh;
#X obj 301 287 print iMinPh;
#X obj 109 291 print minBar;
#X obj 323 382 print freeSlot;
#X obj 115 381 print barNow;
#X obj 231 382 print newBar;
#X connect 1 0 0 0;
#X connect 2 0 5 0;
#X connect 3 0 6 0;
#X connect 4 0 2 0;
#X connect 4 0 3 0;
#X connect 4 0 1 0;
#X connect 7 0 8 0;
#X connect 10 0 9 0;
#X connect 13 0 12 0;
#X connect 15 0 14 0;
#X connect 17 0 16 0;
#X connect 19 0 18 0;
#X connect 21 0 20 0;
#X restore 408 147 pd debug;
#X obj 434 6 loadbang;
#X obj 409 8 bng 15 250 50 0 empty empty empty 17 7 0 10 -262144 -1
-1;
#N canvas 325 336 402 465 sanity 0;
#X obj 120 62 inlet set;
#X obj 223 60 inlet clock;
#X obj 85 387 outlet set;
#X obj 191 149 unpack f f;
#X obj 57 138 unpack f f f;
#X text 50 13 not scheduling things in the past;
#X obj 85 361 pack f f f;
#X obj 191 126 list;
#X text 228 128 snapshot;
#X obj 57 326 spigot;
#X obj 91 173 t f f f;
#X obj 120 90 t l b;
#X obj 218 223 >;
#X obj 175 280 ||;
#X obj 142 173 t f f;
#X obj 248 174 + 0.01;
#X obj 191 174 t f f;
#X obj 190 223 ==;
#X obj 154 223 >;
#X obj 198 251 &&;
#X text 103 37 [id \, bar \, ph];
#X text 233 40 [bar \, ph];
#X text 77 413 [id \, bar \, ph];
#X connect 0 0 11 0;
#X connect 1 0 7 1;
#X connect 3 0 16 0;
#X connect 3 1 15 0;
#X connect 4 0 9 0;
#X connect 4 1 10 0;
#X connect 4 2 14 0;
#X connect 6 0 2 0;
#X connect 7 0 3 0;
#X connect 9 0 6 0;
#X connect 10 0 6 1;
#X connect 10 1 18 0;
#X connect 10 2 17 0;
#X connect 11 0 4 0;
#X connect 11 1 7 0;
#X connect 12 0 19 1;
#X connect 13 0 9 1;
#X connect 14 0 6 2;
#X connect 14 1 12 0;
#X connect 15 0 12 1;
#X connect 16 0 18 1;
#X connect 16 1 17 1;
#X connect 17 0 19 0;
#X connect 18 0 13 0;
#X connect 19 0 13 1;
#X restore 144 72 pd sanity;
#X text 179 2 [id \, bar \, ph];
#X text 20 151 [id \, bar \, ph];
#X text 27 5 [bar \, ph;
#X connect 0 0 7 0;
#X connect 0 0 11 1;
#X connect 4 0 11 0;
#X connect 6 0 5 0;
#X connect 7 0 1 0;
#X connect 9 0 2 0;
#X connect 10 0 2 0;
#X connect 11 0 3 0;
