#N canvas 61 572 397 358 10;
#X obj 178 113 list;
#X obj 160 15 inlet;
#X obj 205 256 outlet;
#X obj 178 195 spigot;
#X msg 113 90 0;
#X msg 107 136 1;
#X obj 160 80 lock resource-\$1;
#X obj 178 288 free resource-\$1;
#X obj 178 142 s to-\$1;
#X obj 178 167 r from-\$1;
#X obj 160 49 t b b a;
#X obj 178 223 t b a;
#X connect 0 0 8 0;
#X connect 1 0 10 0;
#X connect 3 0 11 0;
#X connect 4 0 3 1;
#X connect 5 0 3 1;
#X connect 6 0 0 0;
#X connect 6 0 5 0;
#X connect 9 0 3 0;
#X connect 10 0 6 0;
#X connect 10 1 4 0;
#X connect 10 2 0 1;
#X connect 11 0 4 0;
#X connect 11 0 7 0;
#X connect 11 1 2 0;
