#N canvas 138 530 866 427 10;
#X obj 50 14 inlet capture;
#X obj 222 18 inlet event;
#X obj 222 194 cloakroom 20 50;
#X obj 354 355 outlet events;
#X text 365 336 dump to event manager;
#X obj 50 333 outlet barDur;
#X text 69 314 to clock;
#X obj 222 69 spigot;
#X text 63 34 [1=startTime \, 0=endTime];
#X obj 50 82 s \$0-capture;
#X obj 255 43 r \$0-capture;
#X obj 222 115 list prepend;
#X msg 291 91 create;
#X obj 291 67 loadbang;
#X obj 222 141 list trim;
#X obj 49 163 r \$0-capture;
#X obj 50 216 timer;
#X obj 49 189 select 1 0;
#X obj 50 52 change;
#X obj 620 90 select 0;
#X obj 320 264 spigot;
#X obj 222 266 spigot;
#X obj 353 237 == 0;
#X obj 222 296 s \$0-lastKey;
#N canvas 0 50 464 344 scaleTime 1;
#X obj 147 45 inlet event;
#X obj 118 242 outlet event;
#X obj 239 45 inlet scale;
#X text 157 77 [key \, bar \, ph \, [spec]];
#X obj 147 99 list split 3;
#X obj 97 130 unpack f f f;
#X obj 103 184 pack f f f;
#X obj 118 215 list append;
#X obj 160 158 *;
#X connect 0 0 4 0;
#X connect 2 0 8 1;
#X connect 4 0 5 0;
#X connect 4 1 7 1;
#X connect 5 0 6 0;
#X connect 5 1 6 1;
#X connect 5 2 8 0;
#X connect 6 0 7 0;
#X connect 7 0 1 0;
#X connect 8 0 6 2;
#X restore 354 316 pd scaleTime;
#X obj 50 242 max 250;
#X obj 438 21 inlet barDur;
#X obj 50 269 t f f;
#X obj 77 294 s \$0-newDur;
#X obj 423 262 r \$0-newDur;
#X obj 423 290 /;
#X obj 237 166 r \$0-tocloakroom;
#X obj 353 195 r \$0-capture;
#X obj 620 64 r \$0-capture;
#X text 543 22 get each event from cloakroom then clear;
#X obj 620 172 f;
#X obj 635 145 r \$0-lastKey;
#X obj 620 198 moses 0;
#X obj 620 263 t b;
#X msg 620 286 clear;
#X obj 671 345 s \$0-tocloakroom;
#X obj 667 265 - 1;
#X msg 748 291 get \$1;
#X obj 620 118 delay;
#X obj 659 225 t b f f;
#X obj 667 289 s \$0-lastKey;
#X obj 489 164 s \$0-lastKey;
#X obj 489 109 loadbang;
#X obj 489 137 -1;
#X obj 320 291 list split 1;
#X connect 0 0 18 0;
#X connect 1 0 7 0;
#X connect 2 0 20 0;
#X connect 2 0 21 0;
#X connect 7 0 11 0;
#X connect 10 0 7 1;
#X connect 11 0 14 0;
#X connect 12 0 11 1;
#X connect 13 0 12 0;
#X connect 14 0 2 0;
#X connect 15 0 17 0;
#X connect 16 0 25 0;
#X connect 17 0 16 0;
#X connect 17 1 16 1;
#X connect 18 0 9 0;
#X connect 19 0 43 0;
#X connect 20 0 49 0;
#X connect 21 0 23 0;
#X connect 22 0 20 1;
#X connect 24 0 3 0;
#X connect 25 0 27 0;
#X connect 26 0 30 1;
#X connect 27 0 5 0;
#X connect 27 1 28 0;
#X connect 29 0 30 0;
#X connect 30 0 24 1;
#X connect 31 0 2 0;
#X connect 32 0 21 1;
#X connect 32 0 22 0;
#X connect 33 0 19 0;
#X connect 35 0 37 0;
#X connect 36 0 35 1;
#X connect 37 0 38 0;
#X connect 37 1 44 0;
#X connect 38 0 39 0;
#X connect 39 0 40 0;
#X connect 41 0 45 0;
#X connect 42 0 40 0;
#X connect 43 0 35 0;
#X connect 44 0 43 0;
#X connect 44 1 41 0;
#X connect 44 2 42 0;
#X connect 47 0 48 0;
#X connect 48 0 46 0;
#X connect 49 1 24 0;
