#N canvas 316 227 585 461 10;
#X obj 457 392 outlet tempo;
#X obj 77 24 notein;
#X obj 93 50 > 64;
#X obj 60 76 spigot;
#X obj 60 99 select 4;
#X obj 38 183 timer;
#X obj 60 125 tgl 15 0 empty empty empty 17 7 0 10 -262144 -1 -1 0
1;
#X obj 60 147 select 0 1;
#X obj 77 183 timer;
#X obj 60 236 list append 0 0 0;
#X obj 60 261 list split 3;
#X obj 60 287 s \$0-recent;
#X obj 159 210 r \$0-recent;
#X obj 344 27 r \$0-recent;
#X obj 421 81 expr ($f1+$f2+$f3)/3;
#X obj 344 52 t l l;
#X obj 258 125 expr (abs($f1-$f4)+abs($f2-$f4)+abs($f3-$f4))/$f4;
#X obj 297 204 s \$0-minVar;
#X obj 258 253 moses 1;
#X obj 297 227 r \$0-minVar;
#X obj 406 313 f;
#X obj 258 304 s \$0-minVar;
#X obj 258 276 t f b;
#X obj 297 178 min 0.11;
#X obj 258 152 moses 2;
#X obj 406 340 moses 200;
#X obj 457 366 moses 5000;
#X connect 1 0 3 0;
#X connect 1 1 2 0;
#X connect 2 0 3 1;
#X connect 3 0 4 0;
#X connect 4 0 6 0;
#X connect 5 0 9 0;
#X connect 6 0 7 0;
#X connect 7 0 5 0;
#X connect 7 0 8 1;
#X connect 7 1 5 1;
#X connect 7 1 8 0;
#X connect 8 0 9 0;
#X connect 9 0 10 0;
#X connect 10 0 11 0;
#X connect 12 0 9 1;
#X connect 13 0 15 0;
#X connect 14 0 16 3;
#X connect 14 0 20 1;
#X connect 15 0 16 0;
#X connect 15 1 14 0;
#X connect 16 0 24 0;
#X connect 18 0 22 0;
#X connect 19 0 18 1;
#X connect 20 0 25 0;
#X connect 22 0 21 0;
#X connect 22 1 20 0;
#X connect 23 0 17 0;
#X connect 24 0 18 0;
#X connect 24 1 23 0;
#X connect 25 1 26 0;
#X connect 26 0 0 0;
