#N canvas 717 201 484 526 10;
#X obj 59 33 percPad 6;
#X obj 233 282 eventManager;
#X obj 237 36 clock_phasor;
#X obj 237 63 s clock;
#X obj 78 140 list;
#X obj 61 363 minimalPadPerc;
#X obj 60 425 dac~;
#X obj 60 392 *~ 0.6;
#X obj 98 91 s \$0-playSpec;
#X obj 61 334 r \$0-playSpec;
#X obj 233 252 r clock;
#X obj 233 311 t l l;
#X obj 99 115 r clock;
#N canvas 164 160 425 343 reschedule 0;
#X obj 152 23 inlet event;
#X text 162 44 [key \, bar \, ph \, [spec]];
#X obj 152 66 list split 3;
#X obj 102 97 unpack f f f;
#X obj 108 151 pack f f f;
#X obj 136 124 + 4;
#X obj 123 182 list append;
#X obj 123 215 outlet event;
#X connect 0 0 2 0;
#X connect 2 0 3 0;
#X connect 2 1 6 1;
#X connect 3 0 4 0;
#X connect 3 1 5 0;
#X connect 3 2 4 2;
#X connect 4 0 6 0;
#X connect 5 0 4 1;
#X connect 6 0 7 0;
#X restore 302 245 pd reschedule;
#X obj 260 336 list split 3;
#X obj 59 62 t l b l;
#X msg 78 166 -1 \$1 \$2;
#X obj 59 214 list prepend;
#X obj 302 215 r toReschedule;
#X obj 294 369 s \$0-playSpec;
#X obj 233 399 s toReschedule;
#X obj 59 246 s toReschedule;
#X connect 0 0 15 0;
#X connect 1 0 11 0;
#X connect 2 0 3 0;
#X connect 4 0 16 0;
#X connect 5 0 7 0;
#X connect 7 0 6 0;
#X connect 7 0 6 1;
#X connect 9 0 5 0;
#X connect 10 0 1 0;
#X connect 11 0 20 0;
#X connect 11 1 14 0;
#X connect 12 0 4 1;
#X connect 13 0 1 1;
#X connect 14 1 19 0;
#X connect 15 0 17 0;
#X connect 15 1 4 0;
#X connect 15 2 8 0;
#X connect 16 0 17 1;
#X connect 17 0 21 0;
#X connect 18 0 13 0;
