#N canvas 197 287 510 591 10;
#X obj 59 33 percPad 6;
#X obj 259 381 eventManager;
#X obj 78 140 list;
#X obj 59 422 minimalPadPerc;
#X obj 58 484 dac~;
#X obj 58 451 *~ 0.6;
#X obj 98 91 s \$0-playSpec;
#X obj 59 393 r \$0-playSpec;
#X obj 259 410 t l l;
#N canvas 164 160 425 343 reschedule 0;
#X obj 152 23 inlet event;
#X text 162 44 [key \, bar \, ph \, [spec]];
#X obj 152 66 list split 3;
#X obj 102 97 unpack f f f;
#X obj 108 151 pack f f f;
#X obj 136 124 + 4;
#X obj 123 182 list append;
#X obj 123 215 outlet event;
#X connect 0 0 2 0;
#X connect 2 0 3 0;
#X connect 2 1 6 1;
#X connect 3 0 4 0;
#X connect 3 1 5 0;
#X connect 3 2 4 2;
#X connect 4 0 6 0;
#X connect 5 0 4 1;
#X connect 6 0 7 0;
#X restore 328 344 pd reschedule;
#X obj 286 435 list split 3;
#X obj 59 62 t l b l;
#X msg 78 166 -1 \$1 \$2;
#X obj 59 214 list prepend;
#X obj 328 314 r toReschedule;
#X obj 320 468 s \$0-playSpec;
#X obj 259 498 s toReschedule;
#X obj 98 312 s toReschedule;
#X obj 320 78 clock_phasor;
#X obj 320 109 s \$0-clock;
#X obj 320 52 r \$0-barDur;
#X obj 259 351 r \$0-clock;
#X obj 99 115 r \$0-clock;
#X obj 221 51 tgl 30 1 empty empty empty 17 7 0 20 -203904 -1 -1 0
1;
#X obj 78 237 r \$0-tapLoop;
#X obj 221 92 s \$0-tapLoop;
#X obj 59 287 tapLoop;
#X obj 59 335 s \$0-barDur;
#X obj 98 261 r \$0-barDur;
#N canvas 634 577 324 300 tapPad 1;
#X obj 124 22 notein;
#X obj 140 48 > 64;
#X obj 107 74 spigot;
#X obj 107 97 select 5;
#X obj 165 217 tgl 15 0 empty empty empty 17 7 0 10 -262144 -1 -1 0
1;
#X obj 99 126 t b b;
#X obj 70 183 0;
#X obj 70 157 delay 10000;
#X obj 165 241 outlet;
#X connect 0 0 2 0;
#X connect 0 1 1 0;
#X connect 1 0 2 1;
#X connect 2 0 3 0;
#X connect 3 0 5 0;
#X connect 4 0 8 0;
#X connect 5 0 7 0;
#X connect 5 1 4 0;
#X connect 6 0 4 0;
#X connect 7 0 6 0;
#X restore 221 21 pd tapPad;
#X connect 0 0 11 0;
#X connect 1 0 8 0;
#X connect 2 0 12 0;
#X connect 3 0 5 0;
#X connect 5 0 4 0;
#X connect 5 0 4 1;
#X connect 7 0 3 0;
#X connect 8 0 16 0;
#X connect 8 1 10 0;
#X connect 9 0 1 1;
#X connect 10 1 15 0;
#X connect 11 0 13 0;
#X connect 11 1 2 0;
#X connect 11 2 6 0;
#X connect 12 0 13 1;
#X connect 13 0 26 0;
#X connect 14 0 9 0;
#X connect 18 0 19 0;
#X connect 20 0 18 0;
#X connect 21 0 1 0;
#X connect 22 0 2 1;
#X connect 23 0 25 0;
#X connect 24 0 26 1;
#X connect 26 0 27 0;
#X connect 26 1 17 0;
#X connect 28 0 26 2;
#X connect 29 0 23 0;
