#N canvas 112 308 623 372 10;
#X obj 70 35 r clock;
#X obj 99 132 schedule;
#X obj 92 173 print PLAY_THIS;
#X obj 428 154 s clock;
#X obj 496 78 bng 15 250 50 0 empty empty empty 17 7 0 10 -262144 -1
-1;
#X msg 515 77 stop;
#X obj 502 106 clock_const 3000;
#X obj 229 276 clock_phasor;
#X obj 226 305 unpack f f;
#X floatatom 210 343 5 0 0 0 - - -;
#X floatatom 284 340 5 0 0 0 - - -;
#X obj 503 153 unpack f f;
#X floatatom 487 191 5 0 0 0 - - -;
#X floatatom 561 188 5 0 0 0 - - -;
#X msg 148 43 132 19 0.3;
#X msg 235 20 101 17 0.243;
#X msg 171 72 222 20 0.735;
#X msg 199 102 745 20 0.736;
#X msg 139 15 335 20 0.4;
#X connect 0 0 1 0;
#X connect 1 0 2 0;
#X connect 4 0 6 0;
#X connect 5 0 6 0;
#X connect 6 0 11 0;
#X connect 6 0 3 0;
#X connect 7 0 8 0;
#X connect 8 0 9 0;
#X connect 8 1 10 0;
#X connect 11 0 12 0;
#X connect 11 1 13 0;
#X connect 14 0 1 1;
#X connect 15 0 1 1;
#X connect 16 0 1 1;
#X connect 17 0 1 1;
#X connect 18 0 1 1;
