#N canvas 220 502 565 345 10;
#X obj 177 98 eventManager;
#X obj 80 56 clock_const;
#X obj 61 27 bng 15 250 50 0 empty empty empty 17 7 0 10 -262144 -1
-1;
#X msg 84 26 stop;
#X obj 80 82 s clock;
#X obj 195 187 eventCreate;
#X msg 206 159 13 14 15 16;
#X obj 197 220 print evId;
#X obj 50 181 eventFree;
#X obj 310 128 eventGet;
#X obj 306 171 print data;
#X msg 315 92 0;
#X obj 414 151 eventUpdate;
#X msg 466 99 6 5 4 3 2 7;
#X msg 415 68 5;
#X msg 352 94 5;
#X connect 1 0 4 0;
#X connect 2 0 1 0;
#X connect 3 0 1 0;
#X connect 5 0 7 0;
#X connect 6 0 5 0;
#X connect 9 0 10 0;
#X connect 11 0 9 0;
#X connect 13 0 12 1;
#X connect 14 0 12 0;
#X connect 15 0 9 0;
