#N canvas 127 388 1193 472 10;
#X obj 37 287 cloakroom 14 1000;
#X obj 37 258 r toCloakroom;
#X obj 37 315 s fromCloakroom;
#X obj 290 120 s toCloakroom;
#X obj 291 142 r fromCloakroom;
#X msg 278 59 create 30 40 50;
#X obj 288 192 print;
#X msg 336 26 update 1 60 70 80 90;
#X msg 395 68 get 1;
#X msg 227 25 free 1;
#X msg 282 9 create 24 67 5068 33;
#X obj 42 121 r clock;
#X obj 42 171 schedule;
#X obj 44 75 s clock;
#X obj 38 20 bng 15 250 50 0 empty empty empty 17 7 0 10 -262144 -1
-1;
#X msg 57 19 stop;
#X obj 44 48 clock_const 3000;
#X obj 87 145 r toSchedule;
#X obj 42 200 s fromSchedule;
#X obj 545 93 notein;
#X obj 561 120 t f f;
#X obj 588 145 > 0;
#X obj 545 177 spigot;
#X obj 545 212 pack f f;
#X obj 476 319 print a;
#X obj 540 320 print b;
#X obj 634 330 print c;
#X obj 708 335 print d;
#X obj 780 68 ctlin;
#X obj 545 240 route 74 75 70 71;
#X obj 777 97 swap;
#X obj 777 147 route 41 42 43 44 45 46 29 30 31 32 33 34;
#X obj 777 122 pack f f;
#X obj 756 211 f;
#X obj 782 211 f;
#X obj 808 211 f;
#X obj 756 186 bng 15 250 50 0 empty empty empty 17 7 0 10 -262144
-1 -1;
#X obj 823 265 f;
#X obj 849 265 f;
#X obj 875 265 f;
#X obj 823 240 bng 15 250 50 0 empty empty empty 17 7 0 10 -262144
-1 -1;
#X obj 893 213 f;
#X obj 919 213 f;
#X obj 945 213 f;
#X obj 893 188 bng 15 250 50 0 empty empty empty 17 7 0 10 -262144
-1 -1;
#X obj 960 267 f;
#X obj 986 267 f;
#X obj 1012 267 f;
#X obj 960 242 bng 15 250 50 0 empty empty empty 17 7 0 10 -262144
-1 -1;
#X connect 0 0 2 0;
#X connect 1 0 0 0;
#X connect 4 0 6 0;
#X connect 5 0 3 0;
#X connect 7 0 3 0;
#X connect 8 0 3 0;
#X connect 9 0 3 0;
#X connect 10 0 3 0;
#X connect 11 0 12 0;
#X connect 12 0 18 0;
#X connect 14 0 16 0;
#X connect 15 0 16 0;
#X connect 16 0 13 0;
#X connect 17 0 12 1;
#X connect 19 0 22 0;
#X connect 19 1 20 0;
#X connect 20 0 23 1;
#X connect 20 1 21 0;
#X connect 21 0 22 1;
#X connect 22 0 23 0;
#X connect 23 0 29 0;
#X connect 28 0 30 0;
#X connect 28 1 30 1;
#X connect 29 0 24 0;
#X connect 29 1 25 0;
#X connect 29 2 26 0;
#X connect 29 3 27 0;
#X connect 30 0 32 0;
#X connect 31 0 33 1;
#X connect 31 1 34 1;
#X connect 31 2 35 1;
#X connect 31 3 37 1;
#X connect 31 4 38 1;
#X connect 31 5 39 1;
#X connect 31 6 41 1;
#X connect 31 7 42 1;
#X connect 31 8 43 1;
#X connect 31 9 45 1;
#X connect 31 10 46 1;
#X connect 31 11 47 1;
#X connect 32 0 31 0;
#X connect 36 0 33 0;
#X connect 36 0 34 0;
#X connect 36 0 35 0;
#X connect 40 0 37 0;
#X connect 40 0 38 0;
#X connect 40 0 39 0;
#X connect 44 0 41 0;
#X connect 44 0 42 0;
#X connect 44 0 43 0;
#X connect 48 0 45 0;
#X connect 48 0 46 0;
#X connect 48 0 47 0;
