#N canvas 540 562 450 425 10;
#X obj 160 49 t b l;
#X obj 166 111 list;
#X obj 166 139 t b l;
#X obj 172 201 list;
#X obj 123 170 delay 5000;
#X obj 212 170 print locked;
#X obj 175 238 t b l;
#X obj 204 266 print free;
#X obj 174 299 free door;
#X obj 160 15 inlet;
#X msg 33 12 a b c;
#X obj 125 80 lock door \$1;
#X connect 0 0 11 0;
#X connect 0 1 1 1;
#X connect 1 0 2 0;
#X connect 2 0 4 0;
#X connect 2 1 3 1;
#X connect 2 1 5 0;
#X connect 3 0 6 0;
#X connect 4 0 3 0;
#X connect 6 0 8 0;
#X connect 6 1 7 0;
#X connect 9 0 0 0;
#X connect 10 0 0 0;
#X connect 11 0 1 0;
