#N canvas 477 67 518 434 10;
#X obj 175 214 print;
#X msg 121 122 56 57 58 59;
#X obj 172 262 lunpack;
#X obj 152 170 lpack;
#X obj 85 240 lpack;
#X msg 44 182 42 43 44;
#X obj 33 311 print;
#X obj 158 310 print raw;
#X obj 223 312 print tail;
#X obj 101 322 lunpack;
#X obj 87 370 print raw;
#X obj 152 372 print tail;
#X connect 1 0 3 0;
#X connect 2 0 7 0;
#X connect 2 1 8 0;
#X connect 3 0 0 0;
#X connect 3 0 4 1;
#X connect 3 0 2 0;
#X connect 4 0 6 0;
#X connect 4 0 9 0;
#X connect 5 0 4 0;
#X connect 9 0 10 0;
#X connect 9 1 11 0;
