#N canvas 262 308 623 372 10;
#X obj 70 35 r clock;
#X obj 99 132 schedule;
#X obj 92 173 print PLAY_THIS;
#X obj 397 118 s clock;
#X obj 329 145 unpack f f;
#X obj 379 169 change;
#X obj 379 204 print bar;
#X obj 396 50 bng 15 250 50 0 empty empty empty 17 7 0 10 -262144 -1
-1;
#X msg 415 49 stop;
#X msg 148 43 0.4 9 42;
#X msg 199 102 0.7 9 234;
#X obj 402 78 clock_const 3000;
#X msg 139 15 0.2 20 33;
#X msg 235 20 0.2876 21 44;
#X msg 171 72 0.2 12 54;
#X connect 0 0 1 0;
#X connect 1 0 2 0;
#X connect 4 1 5 0;
#X connect 5 0 6 0;
#X connect 7 0 11 0;
#X connect 8 0 11 0;
#X connect 9 0 1 1;
#X connect 10 0 1 1;
#X connect 11 0 3 0;
#X connect 11 0 4 0;
#X connect 12 0 1 1;
#X connect 13 0 1 1;
#X connect 14 0 1 1;
