#N canvas 749 494 450 425 10;
#X obj 334 201 list;
#X obj 324 169 delay 5000;
#X obj 315 130 t b l;
#X obj 335 231 s fromShared;
#X obj 317 92 r toShared;
#X text 283 56 simulated shared resource;
#X msg 34 121 1 2 3;
#X msg 135 120 4 5 6;
#X msg 232 112 7 8 9;
#X obj 31 161 testLockSend 1;
#X obj 233 156 testLockSend 3;
#X obj 133 157 testLockSend 2;
#X obj 15 225 print free1;
#X obj 121 222 print free2;
#X obj 232 217 print free3;
#X connect 0 0 3 0;
#X connect 1 0 0 0;
#X connect 2 0 1 0;
#X connect 2 1 0 1;
#X connect 4 0 2 0;
#X connect 6 0 9 0;
#X connect 7 0 11 0;
#X connect 8 0 10 0;
#X connect 9 0 12 0;
#X connect 10 0 14 0;
#X connect 11 0 13 0;
