#N canvas 158 507 450 425 10;
#X obj 166 111 list;
#X obj 175 238 t b l;
#X obj 175 299 free door;
#X obj 160 15 inlet;
#X obj 171 185 r fromShared;
#X obj 172 160 s toShared;
#X obj 204 266 outlet;
#X obj 173 213 spigot;
#X obj 160 49 t b b l;
#X msg 79 79 0;
#X msg 101 176 1;
#X obj 145 80 lock door;
#X connect 0 0 5 0;
#X connect 1 0 2 0;
#X connect 1 0 9 0;
#X connect 1 1 6 0;
#X connect 3 0 8 0;
#X connect 4 0 7 0;
#X connect 7 0 1 0;
#X connect 8 0 11 0;
#X connect 8 1 9 0;
#X connect 8 2 0 1;
#X connect 9 0 7 1;
#X connect 10 0 7 1;
#X connect 11 0 0 0;
#X connect 11 0 10 0;
