#N canvas 80 584 581 425 10;
#X obj 411 202 list;
#X obj 401 170 delay 5000;
#X obj 392 131 t b l;
#X text 283 56 simulated shared resource;
#X msg 34 121 1 2 3;
#X msg 135 120 4 5 6;
#X msg 232 112 7 8 9;
#X obj 394 93 r to-myRes;
#X obj 412 232 s from-myRes;
#X obj 15 225 print thing1;
#X obj 121 222 print thing2;
#X obj 232 217 print thing3;
#X obj 452 132 print received;
#X obj 31 161 shared myRes;
#X obj 133 157 shared myRes;
#X obj 233 156 shared myRes;
#X msg 60 92 sym 1 2 3;
#X connect 0 0 8 0;
#X connect 1 0 0 0;
#X connect 2 0 1 0;
#X connect 2 1 0 1;
#X connect 4 0 13 0;
#X connect 5 0 14 0;
#X connect 6 0 15 0;
#X connect 7 0 2 0;
#X connect 7 0 12 0;
#X connect 13 0 9 0;
#X connect 14 0 10 0;
#X connect 15 0 11 0;
#X connect 16 0 13 0;
