#N canvas 894 218 675 300 10;
#X obj 59 96 tapLoop;
#X obj 78 14 tgl 30 1 empty empty empty 17 7 0 20 -203904 -1 -1 0 1
;
#X obj 290 16 bng 30 250 50 0 empty empty empty 17 7 0 10 -203904 -1
-1;
#N canvas 230 170 450 300 dummySpec 0;
#X obj 101 26 inlet bang;
#X msg 104 180 \$1 \$2 4 5;
#X obj 101 85 f;
#X obj 142 84 + 1;
#X msg 146 56 0;
#X obj 99 114 expr $f1*11 \; $f1*13;
#X obj 104 150 pack f f;
#X obj 104 211 outlet;
#X connect 0 0 2 0;
#X connect 1 0 7 0;
#X connect 2 0 3 0;
#X connect 2 0 5 0;
#X connect 3 0 2 1;
#X connect 4 0 2 1;
#X connect 5 0 6 0;
#X connect 5 1 6 1;
#X connect 6 0 1 0;
#X restore 358 90 pd dummySpec;
#X obj 496 71 clock_phasor;
#X obj 290 54 t b b;
#X obj 496 102 s \$0-clock;
#X obj 290 90 r \$0-clock;
#X obj 269 112 list;
#X msg 269 136 -1 \$1 \$2;
#X obj 269 160 list append;
#X obj 269 191 s eventFromPad;
#X obj 59 52 r eventFromPad;
#X obj 81 220 print barDur;
#X obj 98 121 print eventsToSched;
#X obj 59 145 s \$0-barDur;
#X obj 496 45 r \$0-barDur;
#X obj 98 70 r \$0-barDur;
#X obj 81 194 r \$0-barDur;
#X connect 0 0 15 0;
#X connect 0 1 14 0;
#X connect 1 0 0 1;
#X connect 2 0 5 0;
#X connect 3 0 10 1;
#X connect 4 0 6 0;
#X connect 5 0 8 0;
#X connect 5 1 3 0;
#X connect 7 0 8 1;
#X connect 8 0 9 0;
#X connect 9 0 10 0;
#X connect 10 0 11 0;
#X connect 12 0 0 0;
#X connect 16 0 4 0;
#X connect 17 0 0 2;
#X connect 18 0 13 0;
